<?xml version="1.0" encoding="UTF-8" standalone="no"?>
<!DOCTYPE svg PUBLIC "-//W3C//DTD SVG 1.1//EN" "http://www.w3.org/Graphics/SVG/1.1/DTD/svg11.dtd">
<svg xmlns="http://www.w3.org/2000/svg" xmlns:xlink="http://www.w3.org/1999/xlink" version="1.1" width="750pt" height="500pt" viewBox="0 0 750 500">
<g enable-background="new">
<g id="Layer-1" data-name="BACKGROUND">
</g>
<g id="Layer-1" data-name="OBJECTS">
<clipPath id="cp0">
<path transform="matrix(1,0,0,-1,0,500)" d="M 0 500 L 750 500 L 750 0 L 0 0 Z "/>
</clipPath>
<g clip-path="url(#cp0)">
<path transform="matrix(1,0,0,-1,336.6768,298.501)" d="M 0 0 C -227.315 15.915 -48.332 88.706 -48.332 88.706 C -240.789 17.915 -51.286 -27.556 -22.056 -31.103 Z " fill="#004efe"/>
<path transform="matrix(1,0,0,-1,269.8931,207.0044)" d="M 0 0 C 0 -87.977 96.111 -196.411 96.111 -196.411 L 96.111 0 Z " fill="#004efe"/>
<path transform="matrix(1,0,0,-1,395.335,302.6953)" d="M 0 0 C 227.314 15.915 48.332 88.706 48.332 88.706 C 240.789 17.915 51.286 -27.556 22.056 -31.103 Z " fill="#004efe"/>
<path transform="matrix(1,0,0,-1,462.1162,207.0044)" d="M 0 0 C 0 -87.977 -96.112 -196.411 -96.112 -196.411 L -96.112 0 Z " fill="#004efe"/>
<path transform="matrix(1,0,0,-1,269.8931,207.0044)" d="M 0 0 C 0 -53.08 43.03 -96.111 96.111 -96.111 L 96.111 96.111 C 43.03 96.111 0 53.08 0 0 " fill="#004efe"/>
<path transform="matrix(1,0,0,-1,462.1172,207.0044)" d="M 0 0 C 0 -53.08 -43.031 -96.111 -96.112 -96.111 L -96.112 96.111 C -43.031 96.111 0 53.08 0 0 " fill="#004efe"/>
<path transform="matrix(1,0,0,-1,294.1499,207.0044)" d="M 0 0 C 0 -39.684 32.171 -71.855 71.855 -71.855 L 71.855 71.855 C 32.171 71.855 0 39.685 0 0 " fill="#f0f1f1"/>
<path transform="matrix(1,0,0,-1,366.0049,135.14942)" d="M 0 0 L 0 -143.71 C 39.685 -143.71 71.856 -111.539 71.856 -71.855 C 71.856 -32.17 39.685 0 0 0 " fill="#f0f1f1"/>
<path transform="matrix(1,0,0,-1,367.4863,151.36719)" d="M 0 0 L -19.486 -20.277 L -19.486 -9.633 L -45.486 -9.633 L -45.486 -40.926 L -59.439 -56.764 L -1.734 -113.526 L 55.896 -56.764 Z " fill="#004efe"/>
<path transform="matrix(1,0,0,-1,363.9365,191.18509)" d="M 0 0 L -13.095 0 C -13.697 0 -14.188 -.49 -14.188 -1.092 L -14.188 -14.19 C -14.188 -14.793 -13.697 -15.281 -13.095 -15.281 L 0 -15.281 C .605 -15.281 1.096 -14.793 1.096 -14.19 L 1.096 -1.092 C 1.096 -.49 .605 0 0 0 " fill="#f0f1f1"/>
<path transform="matrix(1,0,0,-1,382.5459,209.79489)" d="M 0 0 L -13.094 0 C -13.698 0 -14.188 -.489 -14.188 -1.09 L -14.188 -14.188 C -14.188 -14.792 -13.698 -15.28 -13.094 -15.28 L 0 -15.28 C .604 -15.28 1.095 -14.792 1.095 -14.188 L 1.095 -1.09 C 1.095 -.489 .604 0 0 0 " fill="#f0f1f1"/>
<path transform="matrix(1,0,0,-1,363.9365,209.79489)" d="M 0 0 L -13.095 0 C -13.697 0 -14.188 -.489 -14.188 -1.09 L -14.188 -14.188 C -14.188 -14.792 -13.697 -15.28 -13.095 -15.28 L 0 -15.28 C .605 -15.28 1.096 -14.792 1.096 -14.188 L 1.096 -1.09 C 1.096 -.489 .605 0 0 0 " fill="#f0f1f1"/>
<path transform="matrix(1,0,0,-1,382.5459,191.18509)" d="M 0 0 L -13.094 0 C -13.698 0 -14.188 -.49 -14.188 -1.092 L -14.188 -14.19 C -14.188 -14.793 -13.698 -15.281 -13.094 -15.281 L 0 -15.281 C .604 -15.281 1.095 -14.793 1.095 -14.19 L 1.095 -1.092 C 1.095 -.49 .604 0 0 0 " fill="#f0f1f1"/>
<path transform="matrix(1,0,0,-1,366.6953,257.0303)" d="M 0 0 L -52.831 52.833 L -56.765 48.899 L 0 -7.863 L 56.761 48.899 L 52.832 52.833 Z " fill="#004efe"/>
</g>
</g>
</g>
</svg>
